<?xml version="1.0" encoding="UTF-8"?>
<svg width="128pt" height="128pt" version="1.1" viewBox="0 0 128 128" xmlns="http://www.w3.org/2000/svg">
 <path d="m102 18h-76c-4.418 0-8 3.582-8 8v76c0 2.1211 0.84375 4.1562 2.3438 5.6562s3.5352 2.3438 5.6562 2.3438h76c2.1211 0 4.1562-0.84375 5.6562-2.3438s2.3438-3.5352 2.3438-5.6562v-76c0-2.1211-0.84375-4.1562-2.3438-5.6562s-3.5352-2.3438-5.6562-2.3438zm4 84c0 1.0625-0.42188 2.0781-1.1719 2.8281s-1.7656 1.1719-2.8281 1.1719h-76c-2.2109 0-4-1.7891-4-4v-76c0-2.2109 1.7891-4 4-4h76c1.0625 0 2.0781 0.42188 2.8281 1.1719s1.1719 1.7656 1.1719 2.8281zm-42-62c-6.3633 0-12.469 2.5273-16.969 7.0312-4.5039 4.5-7.0312 10.605-7.0312 16.969s2.5273 12.469 7.0312 16.969c4.5 4.5039 10.605 7.0312 16.969 7.0312s12.469-2.5273 16.969-7.0312c4.5039-4.5 7.0312-10.605 7.0312-16.969-0.007812-6.3633-2.5391-12.465-7.0352-16.965-4.5-4.4961-10.602-7.0273-16.965-7.0352zm0 44c-5.3047 0-10.391-2.1055-14.141-5.8594-3.7539-3.75-5.8594-8.8359-5.8594-14.141s2.1055-10.391 5.8594-14.141c3.75-3.7539 8.8359-5.8594 14.141-5.8594s10.391 2.1055 14.141 5.8594c3.7539 3.75 5.8594 8.8359 5.8594 14.141-0.003906 5.3008-2.1133 10.387-5.8633 14.137s-8.8359 5.8594-14.137 5.8633zm30-56c-2.4258 0-4.6133 1.4609-5.543 3.7031-0.92969 2.2422-0.41406 4.8242 1.3008 6.5391 1.7148 1.7148 4.2969 2.2305 6.5391 1.3008 2.2422-0.92969 3.7031-3.1172 3.7031-5.543 0-3.3125-2.6875-6-6-6zm0 8c-0.80859 0-1.5391-0.48828-1.8477-1.2344s-0.13672-1.6094 0.43359-2.1797c0.57031-0.57031 1.4336-0.74219 2.1797-0.43359s1.2344 1.0391 1.2344 1.8477c0 0.53125-0.21094 1.0391-0.58594 1.4141s-0.88281 0.58594-1.4141 0.58594z" fill="#fff"/>
</svg>
