<?xml version="1.0" encoding="UTF-8"?>
<svg width="100px" height="100px" version="1.1" viewBox="0 0 100 100" xmlns="http://www.w3.org/2000/svg">
 <g>
  <path d="m73.949 41c-4.875 0-9.5039 2.3945-13.09 6.8047-4.1289 5.5547-6.918 6.1719-11.871 6.1953h-0.023437c-2.8164 0-7.4141-2.2266-10.922-4.2305-0.097657-0.058593-0.19922-0.11328-0.29688-0.17188-0.38281-0.21875-0.74219-0.43359-1.0938-0.64453 7.8398-3.5508 13.051-10.738 12.172-17.953-0.46875-3.8281-2.5547-7.3359-5.875-9.8867-4.4609-3.4219-10.664-4.8711-17.031-3.9688-5.7891 0.82031-11.117 3.5664-14.617 7.5273-0.73047 0.82812-0.65234 2.0938 0.17578 2.8242 0.82813 0.73047 2.0938 0.65234 2.8242-0.17578 2.8789-3.2617 7.3203-5.5273 12.18-6.2148 5.3008-0.75 10.418 0.40625 14.035 3.1797 2.4961 1.9141 3.9961 4.4023 4.3398 7.1953 0.86328 7.0898-6.3477 14.203-15.742 15.535-1.0078 0.14453-1.75 1.0234-1.7188 2.0391 0.03125 1.0195 0.82422 1.8516 1.8398 1.9336 2.1367 0.17188 4.1602 0.79688 6 1.7734 0.25781 0.15234 0.52344 0.30859 0.80469 0.46875 5.3359 3.2461 8.9609 9.582 8.9609 16.77 0 10.477-7.625 19-17 19s-17-8.5234-17-19c0-4.7188 1.5586-9.2422 4.3945-12.742 0.69531-0.85937 0.5625-2.1172-0.29688-2.8125-0.85547-0.69531-2.1172-0.5625-2.8125 0.29688-3.4102 4.207-5.2852 9.625-5.2852 15.258 0 12.684 9.4219 23 21 23s21-10.316 21-23c0-4.5898-1.2461-8.8945-3.3906-12.516 1.1836 0.31641 2.3281 0.51562 3.3594 0.51562h0.039062c6.1562-0.027344 10.176-1.2461 15.008-7.7383 2.7617-3.3945 6.2891-5.2617 9.9336-5.2617 8.3008 0 15.051 9.4219 15.051 21s-6.75 21-15.051 21c-8.2969 0-15.051-9.4219-15.051-21 0-1.1055-0.89453-2-2-2-1.1055 0-2 0.89453-2 2 0 13.785 8.5469 25 19.051 25 10.504 0 19.051-11.215 19.051-25s-8.5469-25-19.051-25z"/>
  <path d="m57.039 23.488c5.0508 5.4102 14.684 11.973 31.898 12.508 0.023438 0.003906 0.042969 0.003906 0.0625 0.003906 1.0742 0 1.9648-0.85547 1.9961-1.9375 0.035156-1.1055-0.83203-2.0273-1.9375-2.0625-29.934-0.9375-34.91-20.586-35.113-21.449-0.24609-1.0742-1.3164-1.75-2.3945-1.5-1.0781 0.24609-1.7539 1.3164-1.5078 2.3945 0.0625 0.24219 1.4414 6.0938 6.9961 12.043z"/>
  <path d="m80.535 18.5c0.39062 0.39062 0.90234 0.58594 1.4141 0.58594s1.0234-0.19531 1.4141-0.58594c0.78125-0.78125 0.78125-2.0469 0-2.8281l-8-8c-0.78125-0.78125-2.0469-0.78125-2.8281 0s-0.78125 2.0469 0 2.8281z"/>
 </g>
</svg>
