<?xml version="1.0" encoding="UTF-8"?>
<svg width="128pt" height="128pt" version="1.1" viewBox="0 0 128 128" xmlns="http://www.w3.org/2000/svg">
 <path d="m63.48 44.75c-0.79688 0.11328-1.5391 0.47656-2.1211 1.0391l-32 30.719c-0.80859 0.68359-1.2969 1.668-1.3555 2.7227-0.058594 1.0586 0.32031 2.0898 1.0469 2.8594 0.73047 0.76562 1.7422 1.1992 2.8008 1.1953 1.0547-0.003906 2.0664-0.44531 2.7891-1.2148l29.359-28.199 29.359 28.199c0.72266 0.76953 1.7344 1.2109 2.7891 1.2148 1.0586 0.003906 2.0703-0.42969 2.8008-1.1953 0.72656-0.76953 1.1055-1.8008 1.0469-2.8594-0.058594-1.0547-0.54688-2.0391-1.3555-2.7227l-32-30.719c-0.83984-0.80859-2.0039-1.1914-3.1602-1.0391z" fill="#fff"/>
</svg>
