<?xml version="1.0" encoding="UTF-8"?>
<svg width="100pt" height="100pt" version="1.1" viewBox="0 0 100 100" xmlns="http://www.w3.org/2000/svg">
 <path d="m81.293 60.938 12.168-37.473c0.13672-0.41016 0.0625-0.86328-0.19141-1.2227-0.25391-0.34766-0.66406-0.55859-1.0938-0.55859h-63.332l-2.2539-6.9258c-0.19141-0.57812-0.73828-0.94922-1.3477-0.9375l-17.465 0.63281 0.09375 2.7148 16.441-0.60156 7.9688 24.527 6.4414 19.844c0 0.011719 0.011719 0.011719 0.011719 0.019531l2.3672 7.3047c0.17969 0.55859 0.70703 0.9375 1.293 0.9375h47.559v-2.7148h-46.562l-1.4961-4.6016h38.105c0.58984-0.007812 1.1172-0.38672 1.293-0.94531zm-40.281-1.7891-5.5078-16.938-5.7773-17.809h60.578l-11.285 34.746zm12.598 11.094c-4.3984 0-7.9805 3.5781-7.9805 7.9805 0 4.3984 3.5781 7.9805 7.9805 7.9805 4.3984 0 7.9805-3.5781 7.9805-7.9805s-3.5781-7.9805-7.9805-7.9805zm0 13.23c-2.8945 0-5.2617-2.3594-5.2617-5.2539s2.3594-5.2539 5.2617-5.2539c2.9062 0 5.2617 2.3594 5.2617 5.2539-0.007813 2.8984-2.3672 5.2539-5.2617 5.2539zm27.719-13.23c-4.3906 0-7.9688 3.5781-7.9688 7.9805 0 4.3984 3.5703 7.9805 7.9688 7.9805s7.9805-3.5781 7.9805-7.9805c-0.003906-4.4023-3.582-7.9805-7.9805-7.9805zm0 13.23c-2.8945 0-5.2422-2.3594-5.2422-5.2539s2.3594-5.2539 5.2422-5.2539c2.8945 0 5.2617 2.3594 5.2617 5.2539 0 2.8984-2.3594 5.2539-5.2617 5.2539z" fill="#fff"/>
</svg>
