<?xml version="1.0" encoding="UTF-8"?>
<svg width="128pt" height="128pt" version="1.1" viewBox="0 0 128 128" xmlns="http://www.w3.org/2000/svg">
 <g fill="none" stroke="#fff">
  <path transform="scale(1.3333)" d="m27.958 17.83c0 5.4316-4.4004 9.832-9.832 9.832-5.4287 0-9.8291-4.4004-9.8291-9.832 0-5.4287 4.4004-9.8291 9.8291-9.8291 5.4316 0 9.832 4.4004 9.832 9.8291"/>
  <path transform="scale(1.3333)" d="m57.832 17.83c0 5.4316-4.4033 9.832-9.832 9.832s-9.832-4.4004-9.832-9.832c0-5.4287 4.4033-9.8291 9.832-9.8291s9.832 4.4004 9.832 9.8291"/>
  <path transform="scale(1.3333)" d="m87.703 17.83c0 5.4316-4.4004 9.832-9.8291 9.832-5.4316 0-9.832-4.4004-9.832-9.832 0-5.4287 4.4004-9.8291 9.832-9.8291 5.4287 0 9.8291 4.4004 9.8291 9.8291"/>
  <path transform="scale(1.3333)" d="m27.958 48c0 5.4287-4.4004 9.8291-9.832 9.8291-5.4287 0-9.8291-4.4004-9.8291-9.8291 0-5.4316 4.4004-9.832 9.8291-9.832 5.4316 0 9.832 4.4004 9.832 9.832"/>
  <path transform="scale(1.3333)" d="m57.832 48c0 5.4287-4.4033 9.8291-9.832 9.8291s-9.832-4.4004-9.832-9.8291c0-5.4316 4.4033-9.832 9.832-9.832s9.832 4.4004 9.832 9.832"/>
  <path transform="scale(1.3333)" d="m87.703 48c0 5.4287-4.4004 9.8291-9.8291 9.8291-5.4316 0-9.832-4.4004-9.832-9.8291 0-5.4316 4.4004-9.832 9.832-9.832 5.4287 0 9.8291 4.4004 9.8291 9.832"/>
  <path transform="scale(1.3333)" d="m27.958 78.167c0 5.4287-4.4004 9.832-9.832 9.832-5.4287 0-9.8291-4.4033-9.8291-9.832s4.4004-9.832 9.8291-9.832c5.4316 0 9.832 4.4033 9.832 9.832"/>
  <path transform="scale(1.3333)" d="m57.832 78.167c0 5.4287-4.4033 9.832-9.832 9.832s-9.832-4.4033-9.832-9.832 4.4033-9.832 9.832-9.832 9.832 4.4033 9.832 9.832"/>
  <path transform="scale(1.3333)" d="m87.703 78.167c0 5.4287-4.4004 9.832-9.8291 9.832-5.4316 0-9.832-4.4033-9.832-9.832s4.4004-9.832 9.832-9.832c5.4287 0 9.8291 4.4033 9.8291 9.832"/>
 </g>
</svg>
