<?xml version="1.0" encoding="UTF-8"?>
<svg width="100pt" height="100pt" version="1.1" viewBox="0 0 100 100" xmlns="http://www.w3.org/2000/svg">
 <path d="m25.969 34.828c0-0.86328 0.69922-1.5625 1.5625-1.5625h44.938c0.86328 0 1.5625 0.69922 1.5625 1.5625s-0.69922 1.5625-1.5625 1.5625h-44.938c-0.86328 0-1.5625-0.69922-1.5625-1.5625zm46.5 13.609h-44.938c-0.86328 0-1.5625 0.69922-1.5625 1.5625s0.69922 1.5625 1.5625 1.5625h44.938c0.86328 0 1.5625-0.69922 1.5625-1.5625s-0.69922-1.5625-1.5625-1.5625zm0 15.172h-44.938c-0.86328 0-1.5625 0.69922-1.5625 1.5625s0.69922 1.5625 1.5625 1.5625h44.938c0.86328 0 1.5625-0.69922 1.5625-1.5625s-0.69922-1.5625-1.5625-1.5625z" fill="#fff"/>
</svg>
