<?xml version="1.0" encoding="UTF-8"?>
<svg width="128pt" height="128pt" version="1.1" viewBox="0 0 128 128" xmlns="http://www.w3.org/2000/svg">
 <path d="m21.762 12.801c-4.8984 0-8.9609 4.0625-8.9609 8.9609v84.477c0 4.8984 4.0625 8.9609 8.9609 8.9609h84.477c4.8984 0 8.9609-4.0625 8.9609-8.9609v-69.117c0.003906-1.0195-0.39844-2-1.1211-2.7227l-20.477-20.477c-0.72266-0.72266-1.7031-1.125-2.7227-1.1211zm0 7.6797h10.238v32c0 2.1211 1.7188 3.8398 3.8398 3.8398h51.199c2.1211 0 3.8398-1.7188 3.8398-3.8398v-30.402l16.641 16.641v67.52c0 0.77734-0.50391 1.2812-1.2812 1.2812h-84.477c-0.77734 0-1.2812-0.50391-1.2812-1.2812v-84.477c0-0.77734 0.50391-1.2812 1.2812-1.2812zm17.918 0h43.52v28.16h-43.52zm24.32 44.801c-9.1445 0-16.641 7.4961-16.641 16.641 0 9.1406 7.4961 16.637 16.641 16.637s16.641-7.4961 16.641-16.637c0-9.1445-7.4961-16.641-16.641-16.641zm0 7.6797c4.9922 0 8.9609 3.9648 8.9609 8.9609 0 4.9922-3.9688 8.957-8.9609 8.957s-8.9609-3.9648-8.9609-8.957c0-4.9961 3.9688-8.9609 8.9609-8.9609z" fill="#fff"/>
</svg>
