<?xml version="1.0" encoding="UTF-8"?>
<svg width="100pt" height="100pt" version="1.1" viewBox="0 0 100 100" xmlns="http://www.w3.org/2000/svg">
 <path d="m84.062 80.312-15.156-15.156c1.875-2.3438 3.4375-4.8438 4.6875-7.6562 1.5625-3.75 2.3438-7.8125 2.3438-11.875s-0.78125-8.125-2.3438-11.875c-1.5625-3.5938-3.75-6.875-6.5625-9.6875s-6.0938-5-9.6875-6.5625c-3.75-1.5625-7.8125-2.3438-11.875-2.3438s-8.125 0.78125-11.875 2.3438c-3.5938 1.5625-6.875 3.75-9.6875 6.5625s-5 6.0938-6.5625 9.6875c-1.5625 3.75-2.3438 7.8125-2.3438 11.875s0.78125 8.125 2.3438 11.875c1.5625 3.5938 3.75 6.875 6.5625 9.6875s6.0938 5 9.6875 6.5625c3.75 1.5625 7.8125 2.3438 11.875 2.3438s8.125-0.78125 11.875-2.3438c2.8125-1.25 5.3125-2.8125 7.6562-4.6875l15.156 15.156c0.46875 0.46875 1.25 0.78125 1.875 0.78125s1.4062-0.3125 1.875-0.78125c1.25-1.0938 1.25-2.8125 0.15625-3.9062zm-38.438-9.6875c-13.75 0-25-11.25-25-25s11.25-25 25-25 25 11.25 25 25-11.25 25-25 25z" fill="#fff"/>
</svg>
