<?xml version="1.0" encoding="UTF-8"?>
<svg width="100pt" height="100pt" version="1.1" viewBox="0 0 100 100" xmlns="http://www.w3.org/2000/svg">
 <path d="m44.336 27.332c-9.375 0-17.004 7.6289-17.004 17.004s7.6289 17.004 17.004 17.004c4.2344 0 8.1211-1.543 11.098-4.1133l15.094 15.074c0.49219 0.49219 1.2773 0.49219 1.7695 0 0.49219-0.49219 0.49219-1.2812 0-1.7695l-15.094-15.113c2.5625-2.9766 4.1328-6.8516 4.1328-11.078 0-9.375-7.6289-17.004-17.004-17.004zm0 2.5195c8.0156 0 14.484 6.4688 14.484 14.484 0 8.0156-6.4688 14.484-14.484 14.484-8.0156 0-14.484-6.4688-14.484-14.484 0-8.0156 6.4688-14.484 14.484-14.484z" fill="#fff"/>
</svg>
