<?xml version="1.0" encoding="UTF-8"?>
<svg width="128pt" height="128pt" version="1.1" viewBox="0 0 128 128" xmlns="http://www.w3.org/2000/svg">
 <g fill="#fff">
  <path d="m94.359 118h-60.359l-8-92h76.398zm-56.68-4h52.961l7.1602-84h-67.602z"/>
  <path d="m108 30h-88c-1.1055 0-2-0.89453-2-2s0.89453-2 2-2h88c1.1055 0 2 0.89453 2 2s-0.89453 2-2 2z"/>
  <path d="m81.52 30h-35.121v-5.7188c0-5.5234 4.4805-10 10-10h15.121c2.6523 0 5.1953 1.0508 7.0703 2.9258 1.875 1.8789 2.9297 4.4219 2.9297 7.0742zm-31.121-4h27.121v-1.7188c-0.019531-3.3047-2.6953-5.9805-6-6h-15.121c-3.3125 0-6 2.6836-6 6z"/>
  <path d="m63.961 42.121c1.1055 0 2 1.1055 2 2v55.879c0 1.1055-0.89453 2-2 2-1.1055 0-2-1.1055-2-2v-55.879c0-1.1055 0.89453-2 2-2z"/>
  <path d="m48.398 42.121c1.1055 0 2 1.1055 2 2v55.879c0 1.1055-0.89453 2-2 2-1.1055 0-2-1.1055-2-2v-55.879c0-1.1055 0.89453-2 2-2z"/>
  <path d="m79.52 42.121c1.1055 0 2 1.1055 2 2v55.879c0 1.1055-0.89453 2-2 2s-2-1.1055-2-2v-55.879c0-1.1055 0.89453-2 2-2z"/>
 </g>
</svg>
